<?xml version="1.0" encoding="UTF-8" standalone="no"?>
<svg
   id="SkLfjUEzp"
   viewBox="0 0 165 36"
   height="36"
   width="165"
   version="1.1"
   sodipodi:docname="315949ff623122869508aabcd20d62f0.svg"
   xmlns:inkscape="http://www.inkscape.org/namespaces/inkscape"
   xmlns:sodipodi="http://sodipodi.sourceforge.net/DTD/sodipodi-0.dtd"
   xmlns="http://www.w3.org/2000/svg"
   xmlns:svg="http://www.w3.org/2000/svg">
  <defs
     id="defs54" />
  <sodipodi:namedview
     id="namedview52"
     pagecolor="#ffffff"
     bordercolor="#666666"
     borderopacity="1.0"
     inkscape:pageshadow="2"
     inkscape:pageopacity="0.0"
     inkscape:pagecheckerboard="0" />
  <g
     id="SvgjsG1134"
     featurekey="nameLeftFeature-0"
     transform="matrix(1.183347,0,0,1.183347,-2.3581959,-11.381214)"
     fill="#08D9D6">
    <path
       d="M 7.8,10.04 C 7.4,10.04 7,10.08 6.6,10.08 6,10.08 5.28,9.96 5.16,10.76 4.76,14.16 4.4,17.92 4,21.32 3.32,26.92 2.68,32.68 2.04,38.28 1.96,39.04 1.88,39.76 2.72,39.92 4,40 4.96,40 6.04,39.96 6.44,40 6.88,40.04 7,39.56 c 0.08,-0.2 0.08,-0.4 0.08,-0.6 0.08,-0.92 1.28,-12.44 1.76,-12.44 0.76,0 2.76,9.36 3.72,12.8 0.12,0.48 0.36,0.68 0.84,0.64 1,-0.08 1.96,0 2.96,0 1,0 0.8,-0.64 1,-1.48 0.24,-0.92 2.56,-12 3.12,-12 0.64,0 1.96,12.84 2.08,13.12 0.24,0.56 0.92,0.32 1.4,0.32 0.72,0 1.4,0.08 2.32,0 0.68,-0.08 1.36,0.16 1.4,-0.72 0,-0.2 -0.08,-0.4 -0.12,-0.6 C 27.4,37.6 27.2,36.4 27,35.4 26.72,33.32 26.32,31.28 26.04,29.2 25.64,25.92 25.24,22.64 24.88,19.36 24.6,16.56 24.2,13.4 23.96,10.6 23.88,9.68 22.84,10 22.2,10 h -2.76 c -0.44,0 -0.64,0.84 -0.72,1.28 -0.24,1.12 -3,15.56 -3.92,15.56 -0.92,0 -3.88,-13.2 -4.4,-16.08 C 10.28,10.12 9.84,9.92 9.24,9.92 Z m 44.96,7.32 c 0.84,2.48 1.04,5.16 1.04,7.8 0,2.2 -0.4,4.32 -0.96,6.44 -0.72,2.52 -1.92,4.8 -4.08,6.28 -1.6,1.16 -3.28,1.92 -5.24,2.12 -0.28,0 -0.52,0.04 -0.8,0.04 C 42.48,40.04 42.24,40 41.96,40 40,39.8 38.32,39.04 36.68,37.88 34.56,36.4 33.32,34.12 32.64,31.6 c -0.6,-2.12 -0.96,-4.24 -0.96,-6.44 0,-2.64 0.2,-5.32 1.04,-7.8 1.48,-4.28 5.56,-7.32 10,-7.4 4.44,0.08 8.52,3.12 10.04,7.4 z m -3.88,10.72 c 0.4,-2.44 0.24,-4.92 -0.24,-7.36 -0.48,-2.2 -1.44,-4.36 -3.28,-5.68 -0.32,-0.24 -0.68,-0.44 -1.04,-0.56 -0.52,-0.24 -1.08,-0.32 -1.6,-0.32 -0.52,0 -1.04,0.08 -1.56,0.32 -0.4,0.12 -0.72,0.32 -1.04,0.56 -1.88,1.32 -2.84,3.48 -3.28,5.68 -0.48,2.44 -0.64,4.92 -0.24,7.36 0.4,2.2 1.2,5.16 3.28,6.28 0.88,0.48 1.84,0.8 2.84,0.84 1,-0.04 2,-0.36 2.88,-0.84 2.08,-1.12 2.88,-4.08 3.28,-6.28 z m 26.8,5.2 c 0.04,1.92 0,3.88 -0.12,5.8 0,0.16 -0.12,0.32 -0.24,0.4 -0.16,0.12 -0.36,0.2 -0.56,0.2 -2.48,0.4 -5.48,0.6 -7.88,-0.2 -5.4,-1.84 -9.08,-7.88 -9.08,-14.8 0,-7.48 5.36,-14.76 13.16,-15.04 1.04,-0.04 4.6,-0.2 4.48,1.56 -0.08,1.28 0.04,2.32 0,3.64 0,0.24 -0.16,0.4 -0.4,0.36 -2.28,-0.28 -4.88,-1 -7.08,0.04 -1.84,0.88 -3.12,2.76 -3.84,4.6 -1.28,3.04 -1,6.56 -0.12,9.68 0.68,2.48 2.16,5.4 5.12,5.48 0.16,0.04 1.68,0.12 1.68,-0.04 L 70.68,29.84 C 70.64,29.6 70.64,29.36 70.6,29.12 70.56,28.88 70.4,28.8 70.16,28.76 c -0.64,0 -0.64,-0.04 -1.28,-0.04 -1.48,0 -1.16,-1 -1.2,-1.32 -0.04,-0.6 0,-1.16 -0.04,-1.76 -0.04,-0.56 0.12,-1 0.68,-1.08 h 0.48 c 2.08,-0.12 4.2,0.04 6.4,0.04 0.32,0 0.48,0.4 0.48,0.76 0.04,0.4 0.04,0.68 0.04,1.08 0.12,1.96 -0.12,3.96 -0.08,5.92 0.04,0.32 0.04,0.6 0.04,0.92 z M 96.8,10.92 c 0.12,0.56 0.04,27.2 0.04,27.88 0,1.2 -0.44,1.16 -1.24,1.16 -1.2,0 -2.88,0.2 -3.24,-0.2 C 92.04,39.48 86.12,25.2 85.28,23.4 85.2,23.24 85,22.84 84.84,22.92 c -0.2,0.08 -0.12,0.36 -0.12,0.52 -0.04,1.4 0.2,13.48 0.2,15.4 0,0.96 -0.04,1.12 -0.84,1.12 h -2 c -0.52,0 -1.16,-0.04 -1.68,0.04 -0.4,0 -0.6,-0.12 -0.64,-0.52 v -3.16 c 0.08,-3.36 0,-23.28 0,-24.76 0,-1.28 0.36,-1.52 1.64,-1.52 C 82.28,10 83.16,10 84.04,10 c 0.28,0 0.44,0.04 0.6,0.4 1.08,2.52 5.68,14.08 6.4,15.48 0.12,0.28 0.56,1.4 0.8,1.52 h 0.04 C 92.04,27.24 92,26.44 92,26.2 92,25.6 91.68,11.56 91.68,11.28 c 0,-0.4 -0.12,-0.76 0.08,-1.04 0.12,-0.16 0.64,-0.2 0.84,-0.24 1.12,-0.08 2.44,0.04 3.56,0 0.56,0 0.52,0.4 0.64,0.92 z m 9.6,18.76 c -0.12,-4.56 -0.08,-9.4 -0.04,-13.92 0,-1.4 -0.08,-2.92 -0.08,-4.32 0,-1.52 -0.6,-1.44 -1.4,-1.48 -1.16,-0.04 -1.68,-0.04 -2.84,-0.04 -0.76,-0.04 -1.08,0.16 -1.08,0.92 0,3.92 -0.12,15 -0.08,16.6 0.04,1.6 0.2,8.88 0.12,10.48 -0.04,0.56 0,1.12 0.04,1.68 0.04,0.2 0.16,0.4 0.48,0.4 1.32,-0.08 2.56,-0.08 3.88,-0.12 0.48,-0.04 0.88,-0.16 1.08,-0.68 0.04,-0.28 -0.08,-7.6 -0.08,-9.52 z"
       id="path42" />
  </g>
  <g
     id="SvgjsG1135"
     featurekey="inlineSymbolFeature-0"
     transform="matrix(0.45,0,0,0.45,124.5,-4.4999997)"
     fill="#08D9D6">
    <path
       d="M 50,10 10,90 H 90 Z M 50,24.909 72.546,70 H 42.36 l 3.333,-6.667 H 61.757 L 50,39.814 31.575,76.667 h 44.304 l 3.333,6.666 H 20.788 Z"
       id="path45" />
  </g>
  <g
     id="SvgjsG1136"
     featurekey="nameRightFeature-0"
     transform="translate(170,18)"
     fill="#08D9D6">
    <path
       d=""
       id="path48" />
  </g>
</svg>
